<svg xmlns="http://www.w3.org/2000/svg">
  <symbol id="music" viewBox="0 0 24 24"><path d="M9 18V5l11-2v13M9 9l11-2"/><circle cx="6" cy="18" r="3"/><circle cx="17" cy="16" r="3"/></symbol>
  <symbol id="headphones" viewBox="0 0 24 24"><path d="M4 14v-2a8 8 0 0 1 16 0v2M4 14h3v6H5a1 1 0 0 1-1-1v-5Zm16 0h-3v6h2a1 1 0 0 0 1-1v-5Z"/></symbol>
  <symbol id="grid" viewBox="0 0 24 24"><rect x="4" y="4" width="6" height="6" rx="1"/><rect x="14" y="4" width="6" height="6" rx="1"/><rect x="4" y="14" width="6" height="6" rx="1"/><rect x="14" y="14" width="6" height="6" rx="1"/></symbol>
  <symbol id="bolt" viewBox="0 0 24 24"><path d="m13 2-8 12h7l-1 8 8-12h-7l1-8Z"/></symbol>
  <symbol id="shield-check" viewBox="0 0 24 24"><path d="M12 3 4 6v5c0 5 3.4 8.5 8 10 4.6-1.5 8-5 8-10V6l-8-3Z"/><path d="m8.5 12 2.2 2.2 4.8-5"/></symbol>
  <symbol id="pin" viewBox="0 0 24 24"><path d="M12 21s7-6 7-12a7 7 0 1 0-14 0c0 6 7 12 7 12Z"/><circle cx="12" cy="9" r="2.5"/></symbol>
  <symbol id="clock" viewBox="0 0 24 24"><circle cx="12" cy="12" r="9"/><path d="M12 7v5l3 2"/></symbol>
  <symbol id="repeat" viewBox="0 0 24 24"><path d="m17 2 4 4-4 4M3 11V9a3 3 0 0 1 3-3h15M7 22l-4-4 4-4m14-1v2a3 3 0 0 1-3 3H3"/></symbol>
  <symbol id="plus" viewBox="0 0 24 24"><path d="M12 5v14M5 12h14"/></symbol>
  <symbol id="check" viewBox="0 0 24 24"><path d="m5 12 4 4L19 6"/></symbol>
  <symbol id="x" viewBox="0 0 24 24"><path d="m6 6 12 12M18 6 6 18"/></symbol>
  <symbol id="car" viewBox="0 0 24 24"><path d="m5 11 2-5h10l2 5M3 12h18v6H3z"/><circle cx="7" cy="18" r="2"/><circle cx="17" cy="18" r="2"/></symbol>
  <symbol id="dumbbell" viewBox="0 0 24 24"><path d="M7 8v8M4 10v4m16-4v4m-3-6v8M7 12h10"/></symbol>
  <symbol id="walk" viewBox="0 0 24 24"><circle cx="13" cy="4" r="2"/><path d="m10 22 2-7-3-3 2-5 5 3 3 1M12 15l5 7M9 12l-5 4"/></symbol>
  <symbol id="home" viewBox="0 0 24 24"><path d="m3 11 9-8 9 8v10h-6v-6H9v6H3V11Z"/></symbol>
  <symbol id="coffee" viewBox="0 0 24 24"><path d="M5 8h12v8a4 4 0 0 1-4 4H9a4 4 0 0 1-4-4V8Zm12 2h2a3 3 0 0 1 0 6h-2M8 4v2m4-2v2"/></symbol>
  <symbol id="moon" viewBox="0 0 24 24"><path d="M20 15.5A8.5 8.5 0 0 1 8.5 4 8.5 8.5 0 1 0 20 15.5Z"/></symbol>
  <symbol id="volume" viewBox="0 0 24 24"><path d="M5 9v6h4l5 4V5L9 9H5Zm12 1a3 3 0 0 1 0 4m2-7a7 7 0 0 1 0 10"/></symbol>
  <symbol id="play" viewBox="0 0 24 24"><path d="m9 6 9 6-9 6V6Z"/></symbol>
  <symbol id="pause" viewBox="0 0 24 24"><path d="M9 6v12M15 6v12"/></symbol>
  <symbol id="list" viewBox="0 0 24 24"><path d="M9 6h11M9 12h11M9 18h11M4 6h.01M4 12h.01M4 18h.01"/></symbol>
  <symbol id="devices" viewBox="0 0 24 24"><rect x="3" y="4" width="14" height="10" rx="1"/><path d="M8 19h4m-2-5v5"/><rect x="16" y="9" width="5" height="11" rx="1"/></symbol>
  <symbol id="help" viewBox="0 0 24 24"><circle cx="12" cy="12" r="9"/><path d="M9.8 9a2.4 2.4 0 1 1 3.4 2.2c-.8.4-1.2 1-1.2 1.8m0 3h.01"/></symbol>
  <symbol id="planner" viewBox="0 0 24 24"><rect x="4" y="5" width="16" height="15" rx="2"/><path d="M8 3v4m8-4v4M4 10h16m-11 5 2 2 4-4"/></symbol>
  <symbol id="brain" viewBox="0 0 24 24"><path d="M9 4a3 3 0 0 0-3 3 3 3 0 0 0-1 5 3 3 0 0 0 2 5 3 3 0 0 0 5 2V5a3 3 0 0 0-3-1Zm6 0a3 3 0 0 1 3 3 3 3 0 0 1 1 5 3 3 0 0 1-2 5 3 3 0 0 1-5 2V5a3 3 0 0 1 3-1Z"/></symbol>
  <symbol id="users" viewBox="0 0 24 24"><circle cx="9" cy="8" r="3"/><circle cx="17" cy="9" r="2"/><path d="M3 20v-2a5 5 0 0 1 10 0v2m2-6a4 4 0 0 1 6 3.5V20"/></symbol>
  <symbol id="lock" viewBox="0 0 24 24"><rect x="5" y="10" width="14" height="11" rx="2"/><path d="M8 10V7a4 4 0 0 1 8 0v3"/></symbol>
  <symbol id="arrow-up" viewBox="0 0 24 24"><path d="m6 14 6-6 6 6"/></symbol>
  <symbol id="arrow-down" viewBox="0 0 24 24"><path d="m6 10 6 6 6-6"/></symbol>
  <symbol id="star" viewBox="0 0 24 24"><path d="m12 3 2.8 5.7 6.2.9-4.5 4.4 1.1 6.2-5.6-3-5.6 3 1.1-6.2L3 9.6l6.2-.9L12 3Z"/></symbol>
</svg>
